# xmcd
#
# Track frame offsets:
#   150
#   18797
#   38285
#   59572
#   75540
#   96240
#   116025
#   135730
#   155095
#   172887
#   195457
#   216517
#
# Disc length: 3120 seconds
#
# Revision: 0
# Processed by: cddbd v1.5.2PL0 Copyright (c) Steve Scherf et al.
# Submitted via: uFREEDB ActiveX Control 1.5
#
DISCID=9b0c2e0c
DTITLE=Sergio Rick - Rap Jam
DYEAR=1995
DGENRE=Hip Hop
TTITLE0=
TTITLE1=Uma Historia de Amor
TTITLE2=Um dia tudo vaimudar
TTITLE3=razão do meu viver
TTITLE4=madrugada
TTITLE5=Meu amor
TTITLE6=Volte pra mim
TTITLE7=Cor do pecado
TTITLE8=Sentimentos
TTITLE9=O que Acontece
TTITLE10=Sempre vou amar voçê
TTITLE11=Hip hop chegou
EXTD=
EXTT0=
EXTT1=
EXTT2=
EXTT3=
EXTT4=
EXTT5=
EXTT6=
EXTT7=
EXTT8=
EXTT9=
EXTT10=
EXTT11=
PLAYORDER=
